HIERARCHY
ROOT Cow_ROOTSHJnt
{
	OFFSET 0.000000 66.749710 104.418190
	CHANNELS 6 Xposition Yposition Zposition Xrotation Yrotation Zrotation
	JOINT Cow_Spine_01SHJnt
	{
		OFFSET 0.000000 -20.599148 -0.645164
		CHANNELS 3 Xrotation Yrotation Zrotation
		JOINT Cow_Spine_02SHJnt
		{
			OFFSET -0.000000 -20.593330 -0.659470
			CHANNELS 3 Xrotation Yrotation Zrotation
			JOINT Cow_Spine_03SHJnt
			{
				OFFSET -0.000000 -20.606550 -0.983307
				CHANNELS 3 Xrotation Yrotation Zrotation
				JOINT Cow_Spine_04SHJnt
				{
					OFFSET -0.000000 -20.599676 1.374176
					CHANNELS 3 Xrotation Yrotation Zrotation
					JOINT Cow_Spine_TopSHJnt
					{
						OFFSET -0.000000 -20.599678 0.913795
						CHANNELS 3 Xrotation Yrotation Zrotation
						JOINT Cow_l_Clavicle_01_01SHJnt
						{
							OFFSET 11.171912 0.000000 0.000000
							CHANNELS 3 Xrotation Yrotation Zrotation
							JOINT Cow_l_FrontLeg_HipSHJnt
							{
								OFFSET 7.976342 -4.953094 -13.093445
								CHANNELS 3 Xrotation Yrotation Zrotation
								JOINT Cow_l_FrontLeg_Knee1SHJnt
								{
									OFFSET 0.000006 -3.929440 -54.085663
									CHANNELS 3 Xrotation Yrotation Zrotation
									JOINT Cow_l_FrontLeg_Knee2SHJnt
									{
										OFFSET 0.000000 1.964958 -22.377888
										CHANNELS 3 Xrotation Yrotation Zrotation
										JOINT Cow_l_FrontLeg_AnkleSHJnt
										{
											OFFSET 0.000000 -0.663105 -5.827117
											CHANNELS 3 Xrotation Yrotation Zrotation
											JOINT Cow_l_FrontLeg_BallSHJnt
											{
												OFFSET 0.000006 -5.970051 -9.033520
												CHANNELS 3 Xrotation Yrotation Zrotation
												JOINT Cow_l_FrontLeg_ToeSHJnt
												{
													OFFSET 0.000006 -7.439106 -0.000235
													CHANNELS 3 Xrotation Yrotation Zrotation
													End Site
													{
														OFFSET 7.439106 0.000004 0.000000
													}
												}
											}
										}
									}
								}
							}
						}
						JOINT Cow_r_Clavicle_01_01SHJnt
						{
							OFFSET -11.171912 0.000000 0.000000
							CHANNELS 3 Xrotation Yrotation Zrotation
							JOINT Cow_r_FrontLeg_HipSHJnt
							{
								OFFSET -7.976342 -4.953094 -13.093445
								CHANNELS 3 Xrotation Yrotation Zrotation
								JOINT Cow_r_FrontLeg_Knee1SHJnt
								{
									OFFSET 0.000006 -3.929440 -54.085663
									CHANNELS 3 Xrotation Yrotation Zrotation
									JOINT Cow_r_FrontLeg_Knee2SHJnt
									{
										OFFSET 0.000000 1.964958 -22.377888
										CHANNELS 3 Xrotation Yrotation Zrotation
										JOINT Cow_r_FrontLeg_AnkleSHJnt
										{
											OFFSET 0.000000 -0.663105 -5.827118
											CHANNELS 3 Xrotation Yrotation Zrotation
											JOINT Cow_r_FrontLeg_BallSHJnt
											{
												OFFSET 0.000006 -5.970051 -9.033520
												CHANNELS 3 Xrotation Yrotation Zrotation
												JOINT Cow_r_FrontLeg_ToeSHJnt
												{
													OFFSET 0.000006 -7.439106 -0.000235
													CHANNELS 3 Xrotation Yrotation Zrotation
													End Site
													{
														OFFSET 7.439106 0.000004 0.000000
													}
												}
											}
										}
									}
								}
							}
						}
						JOINT Cow_Neck_01SHJnt
						{
							OFFSET 0.000000 -25.141075 -3.042923
							CHANNELS 3 Xrotation Yrotation Zrotation
							JOINT Cow_Neck_02SHJnt
							{
								OFFSET -0.000000 -19.440186 5.198975
								CHANNELS 3 Xrotation Yrotation Zrotation
								JOINT Cow_Neck_TopSHJnt
								{
									OFFSET -0.000000 -15.102203 2.823219
									CHANNELS 3 Xrotation Yrotation Zrotation
									JOINT Cow_Head_JawSHJnt
									{
										OFFSET 0.000000 -35.995033 -11.047020
										CHANNELS 3 Xrotation Yrotation Zrotation
										JOINT Cow_Head_JawEndSHJnt
										{
											OFFSET 0.000001 -14.239838 -8.004066
											CHANNELS 3 Xrotation Yrotation Zrotation
											End Site
											{
												OFFSET 0.000001 -14.351303 -7.802444
											}
										}
									}
									JOINT Cow_Head_TopSHJnt
									{
										OFFSET -0.000001 -27.576538 24.239853
										CHANNELS 3 Xrotation Yrotation Zrotation
										JOINT Cow_l_Ear_01_01SHJnt
										{
											OFFSET 14.495198 16.691696 -8.068298
											CHANNELS 3 Xrotation Yrotation Zrotation
											JOINT Cow_l_Ear_01_02SHJnt
											{
												OFFSET 6.722663 2.771584 1.751846
												CHANNELS 3 Xrotation Yrotation Zrotation
												JOINT Cow_l_Ear_01_03SHJnt
												{
													OFFSET 10.716763 -0.206581 1.540665
													CHANNELS 3 Xrotation Yrotation Zrotation
													End Site
													{
														OFFSET 0.679575 -10.457191 -2.729607
													}
												}
											}
										}
										JOINT Cow_r_Ear_01_01SHJnt
										{
											OFFSET -14.495194 16.691696 -8.068306
											CHANNELS 3 Xrotation Yrotation Zrotation
											JOINT Cow_r_Ear_01_02SHJnt
											{
												OFFSET -6.722663 2.771584 1.751839
												CHANNELS 3 Xrotation Yrotation Zrotation
												JOINT Cow_r_Ear_01_03SHJnt
												{
													OFFSET -10.716763 -0.206581 1.540665
													CHANNELS 3 Xrotation Yrotation Zrotation
													End Site
													{
														OFFSET -0.679575 -10.457191 -2.729607
													}
												}
											}
										}
									}
								}
							}
							JOINT Cow_NeckSkin_01_01SHJnt
							{
								OFFSET 0.000001 -3.570503 -28.699036
								CHANNELS 3 Xrotation Yrotation Zrotation
								JOINT Cow_NeckSkin_01_02SHJnt
								{
									OFFSET 0.000001 -3.287460 -13.726460
									CHANNELS 3 Xrotation Yrotation Zrotation
									End Site
									{
										OFFSET 0.000000 -13.726448 3.287464
									}
								}
							}
						}
					}
				}
			}
		}
	}
	JOINT Cow_l_HindLeg_HipSHJnt
	{
		OFFSET 22.626928 3.434624 -17.868790
		CHANNELS 3 Xrotation Yrotation Zrotation
		JOINT Cow_l_HindLeg_Knee1SHJnt
		{
			OFFSET -4.433996 11.629982 -42.020042
			CHANNELS 3 Xrotation Yrotation Zrotation
			JOINT Cow_l_HindLeg_Knee2SHJnt
			{
				OFFSET 0.572979 -5.223473 -32.422234
				CHANNELS 3 Xrotation Yrotation Zrotation
				JOINT Cow_l_HindLeg_AnkleSHJnt
				{
					OFFSET 0.961411 -2.095169 -7.270233
					CHANNELS 3 Xrotation Yrotation Zrotation
					JOINT Cow_l_HindLeg_BallSHJnt
					{
						OFFSET 0.000000 -3.795708 -4.836911
						CHANNELS 3 Xrotation Yrotation Zrotation
						JOINT Cow_l_HindLeg_ToeSHJnt
						{
							OFFSET 0.000000 -6.175804 0.000002
							CHANNELS 3 Xrotation Yrotation Zrotation
							End Site
							{
								OFFSET 6.175808 0.000000 0.000000
							}
						}
					}
				}
			}
		}
	}
	JOINT Cow_r_HindLeg_HipSHJnt
	{
		OFFSET -22.626928 3.434624 -17.868790
		CHANNELS 3 Xrotation Yrotation Zrotation
		JOINT Cow_r_HindLeg_Knee1SHJnt
		{
			OFFSET 4.434002 11.629982 -42.020042
			CHANNELS 3 Xrotation Yrotation Zrotation
			JOINT Cow_r_HindLeg_Knee2SHJnt
			{
				OFFSET -0.572975 -5.223473 -32.422234
				CHANNELS 3 Xrotation Yrotation Zrotation
				JOINT Cow_r_HindLeg_AnkleSHJnt
				{
					OFFSET -0.961411 -2.095169 -7.270234
					CHANNELS 3 Xrotation Yrotation Zrotation
					JOINT Cow_r_HindLeg_BallSHJnt
					{
						OFFSET 0.000000 -3.795708 -4.836910
						CHANNELS 3 Xrotation Yrotation Zrotation
						JOINT Cow_r_HindLeg_ToeSHJnt
						{
							OFFSET 0.000000 -6.175804 0.000002
							CHANNELS 3 Xrotation Yrotation Zrotation
							End Site
							{
								OFFSET 6.175806 0.000000 0.000001
							}
						}
					}
				}
			}
		}
	}
	JOINT Cow_Tail_01_01SHJnt
	{
		OFFSET 0.000000 20.837936 23.982246
		CHANNELS 3 Xrotation Yrotation Zrotation
		JOINT Cow_Tail_01_02SHJnt
		{
			OFFSET -0.000000 7.960037 -11.072281
			CHANNELS 3 Xrotation Yrotation Zrotation
			JOINT Cow_Tail_01_03SHJnt
			{
				OFFSET -0.000000 2.666931 -14.319489
				CHANNELS 3 Xrotation Yrotation Zrotation
				JOINT Cow_Tail_01_04SHJnt
				{
					OFFSET -0.000000 -1.425102 -14.386597
					CHANNELS 3 Xrotation Yrotation Zrotation
					JOINT Cow_Tail_01_05SHJnt
					{
						OFFSET -0.000000 -1.119919 -14.413574
						CHANNELS 3 Xrotation Yrotation Zrotation
						JOINT Cow_Tail_01_06SHJnt
						{
							OFFSET -0.000000 0.772911 -13.741093
							CHANNELS 3 Xrotation Yrotation Zrotation
							JOINT Cow_Tail_01_07SHJnt
							{
								OFFSET -0.000000 3.111671 -14.118168
								CHANNELS 3 Xrotation Yrotation Zrotation
								End Site
								{
									OFFSET -0.000000 14.118164 3.111679
								}
							}
						}
					}
				}
			}
		}
	}
	JOINT Cow_Udder_01_01SHJnt
	{
		OFFSET 0.000000 -7.188259 -41.393276
		CHANNELS 3 Xrotation Yrotation Zrotation
		JOINT Cow_Udder_01_02SHJnt
		{
			OFFSET 0.000001 3.137054 -13.240067
			CHANNELS 3 Xrotation Yrotation Zrotation
			End Site
			{
				OFFSET 0.000001 13.240070 3.137051
			}
		}
	}
}
MOTION
Frames: 5
Frame Time: 0.033333
0.000000 66.749695 104.418182 1.708150 0.000000 -0.000000 -1.894126 -0.000097 0.001740 1.187411 -0.000003 0.001149 -1.533439 -0.001205 0.031217 0.210242 -0.006279 0.177595 11.289277 0.017833 0.109682 -0.000001 -0.000000 0.000000 -12.878870 0.033391 -0.327516 1.599349 -0.000002 0.000002 -0.791844 -0.000188 0.003841 1.103583 -0.012695 0.001567 -0.000000 -0.000005 0.000000 0.000000 0.000000 -0.000000 -0.000001 -0.000000 0.000000 -12.829926 0.033549 -0.327728 1.946275 0.000006 -0.000002 -1.037785 -0.000202 0.003990 0.953643 -0.013108 0.001603 0.000000 -0.000005 0.000000 0.000000 -0.000000 0.000000 -0.912635 -0.903412 1.618736 8.096877 -1.488038 2.819510 17.556562 -1.268262 2.082777 -6.859913 -0.000002 -0.000010 0.000002 -0.000000 0.000000 -0.000002 0.000009 0.000010 3.063775 4.047016 -16.598492 3.064024 4.046990 -16.598429 0.000003 0.000001 -0.000001 2.529483 -3.315488 13.747757 2.509843 -3.303902 13.753278 0.000001 -0.000001 -0.000000 0.000000 0.000002 0.000007 0.000001 0.000007 -0.000002 -2.323991 -0.071045 0.072962 0.562785 0.158248 -0.016342 -0.286720 -0.152317 -0.084231 0.339793 0.064824 0.026081 0.000000 -0.000000 0.000000 0.000000 -0.000000 -0.000000 -2.323987 0.071043 -0.072964 0.562787 -0.158250 0.016343 -0.286720 0.152320 0.084228 0.339792 -0.064834 -0.026084 -0.000000 -0.000000 0.000000 -0.000000 -0.000000 0.000000 -0.000002 -0.000000 -0.000000 -0.000002 -0.000000 -0.000000 -0.834490 -2.400124 1.084332 -0.835370 -2.422558 1.033209 -0.843698 -2.563335 0.604335 -0.850700 -2.618090 0.285182 0.000000 -0.000001 -0.000000 0.000000 -0.000000 -0.000000 0.000001 0.000000 -0.000000 
0.000000 66.749695 104.418182 1.632748 0.000000 -0.000000 -1.778672 -0.000124 0.002023 1.113036 -0.000006 0.001398 -1.487260 -0.001353 0.036310 0.178798 -0.007099 0.206565 10.824733 0.019833 0.127715 0.000000 0.000000 0.000000 -12.361113 0.038298 -0.381055 1.590494 -0.000002 -0.000000 -0.800643 -0.000218 0.004521 1.087663 -0.014938 0.001845 -0.000000 -0.000005 0.000000 0.000000 0.000000 -0.000000 0.000000 0.000000 -0.000000 -12.301200 0.038489 -0.381320 1.983817 0.000005 -0.000002 -1.079484 -0.000237 0.004724 0.913234 -0.015498 0.001887 -0.000000 -0.000005 0.000000 0.000000 -0.000000 0.000000 -0.765945 -0.921066 1.589779 7.905990 -1.502302 2.780703 16.737151 -1.238937 2.082700 -4.550463 -0.000004 -0.000001 -0.000002 0.000000 0.000000 0.000003 0.000009 0.000011 3.169686 4.150061 -17.083283 3.169775 4.150049 -17.083249 0.000003 0.000003 0.000000 2.757864 -3.199200 14.400450 2.686797 -3.175321 14.416567 -0.000001 -0.000002 -0.000002 -0.000001 0.000002 0.000006 0.000001 0.000007 -0.000002 -2.220154 -0.067512 0.069708 0.534893 0.150410 -0.015495 -0.272360 -0.145076 -0.080560 0.324893 0.061922 0.024961 0.000000 -0.000000 0.000000 -0.000000 0.000000 -0.000000 -2.220150 0.067508 -0.069712 0.534895 -0.150411 0.015495 -0.272365 0.145081 0.080556 0.324888 -0.061933 -0.024960 -0.000000 -0.000000 -0.000000 0.000000 -0.000000 0.000000 0.000002 -0.000000 -0.000000 -0.000001 0.000000 -0.000000 -0.825563 -3.072907 1.150200 -0.827102 -3.096588 1.084777 -0.841176 -3.236258 0.539828 -0.852465 -3.278004 0.138414 -0.000001 -0.000000 0.000000 -0.000001 -0.000000 -0.000000 0.000001 0.000000 0.000000 
0.000000 66.749695 104.418182 1.553990 0.000000 -0.000000 -1.660966 -0.000214 0.002319 1.037382 -0.000010 0.001657 -1.436966 -0.001489 0.041629 0.148000 -0.007886 0.236824 10.336323 0.021651 0.146586 -0.000001 0.000000 -0.000000 -11.818037 0.043254 -0.437014 1.579294 0.000001 -0.000000 -0.808453 -0.000250 0.005251 1.069333 -0.017347 0.002138 -0.000000 -0.000005 0.000000 0.000000 0.000000 0.000000 -0.000001 0.000000 -0.000000 -11.745781 0.043484 -0.437344 2.018030 -0.000000 -0.000002 -1.119496 -0.000275 0.005522 0.869318 -0.018081 0.002192 0.000000 -0.000005 0.000000 0.000000 -0.000000 0.000000 -0.611019 -0.939448 1.559283 7.703698 -1.516302 2.739803 15.879985 -1.207914 2.082735 -2.465065 -0.000003 0.000001 0.000000 -0.000000 0.000001 -0.000003 0.000009 0.000010 3.208654 4.187525 -17.260663 3.208674 4.187521 -17.260646 -0.000001 -0.000001 0.000001 2.853385 -3.143817 14.670705 2.759684 -3.114893 14.691453 -0.000001 -0.000001 0.000002 -0.000002 -0.000001 -0.000003 0.000002 0.000007 -0.000001 -2.111820 -0.063861 0.066313 0.506066 0.142305 -0.014622 -0.257531 -0.137565 -0.076722 0.309315 0.058891 0.023788 0.000000 -0.000000 0.000000 -0.000000 0.000000 0.000000 -2.111818 0.063857 -0.066318 0.506069 -0.142306 0.014625 -0.257532 0.137565 0.076719 0.309311 -0.058901 -0.023790 -0.000000 -0.000000 0.000000 -0.000000 -0.000000 0.000000 0.000002 -0.000000 -0.000000 -0.000004 -0.000000 -0.000000 -0.817475 -3.636668 1.205458 -0.819696 -3.661392 1.128040 -0.839641 -3.800131 0.485711 -0.855244 -3.830966 0.015283 0.000001 -0.000001 -0.000000 0.000001 -0.000000 -0.000000 -0.000001 0.000000 -0.000000 
0.000000 66.749695 104.418182 1.472398 0.000000 -0.000000 -1.542494 -0.000149 0.002631 0.961302 -0.000012 0.001915 -1.382560 -0.001608 0.047141 0.118395 -0.008619 0.268185 9.826726 0.023243 0.166168 0.000001 -0.000000 -0.000000 -11.252707 0.048203 -0.495022 1.564758 0.000003 0.000002 -0.814465 -0.000286 0.006030 1.048509 -0.019913 0.002452 -0.000000 -0.000005 0.000000 0.000000 0.000000 -0.000000 0.000001 -0.000000 -0.000000 -11.166671 0.048459 -0.495465 2.047288 -0.000001 -0.000002 -1.156556 -0.000316 0.006381 0.821982 -0.020859 0.002520 0.000000 -0.000005 0.000000 0.000000 -0.000000 0.000000 -0.448726 -0.958427 1.527414 7.490920 -1.529829 2.697009 14.990570 -1.175335 2.082882 -0.693476 0.000003 0.000002 0.000003 -0.000000 -0.000001 -0.000002 0.000009 0.000010 3.182259 4.162171 -17.140546 3.182318 4.162161 -17.140519 0.000000 0.000001 0.000002 2.855416 -3.115667 14.642807 2.757430 -3.085681 14.664467 -0.000001 0.000000 -0.000003 -0.000004 -0.000003 -0.000013 0.000001 0.000007 -0.000001 -1.999722 -0.060129 0.062799 0.476530 0.134004 -0.013739 -0.242357 -0.129838 -0.072741 0.293162 0.055753 0.022570 0.000000 -0.000000 0.000000 0.000000 -0.000000 -0.000000 -1.999717 0.060125 -0.062805 0.476536 -0.134004 0.013739 -0.242360 0.129837 0.072743 0.293161 -0.055765 -0.022573 -0.000000 -0.000000 -0.000000 -0.000000 0.000000 -0.000000 -0.000002 -0.000000 -0.000000 0.000001 -0.000000 -0.000000 -0.810925 -4.067130 1.247699 -0.813748 -4.092653 1.161111 -0.838825 -4.230676 0.444343 -0.858166 -4.253174 -0.078839 -0.000003 -0.000002 -0.000000 0.000000 -0.000000 -0.000000 0.000000 0.000000 0.000000 
0.000000 66.749695 104.418182 1.388480 0.000000 -0.000000 -1.424280 -0.000135 0.002944 0.885621 -0.000014 0.002179 -1.324040 -0.001714 0.052810 0.090538 -0.009274 0.300437 9.298637 0.024566 0.186341 -0.000001 0.000000 0.000000 -10.668163 0.053087 -0.554737 1.545776 0.000003 -0.000000 -0.817788 -0.000314 0.006860 1.025143 -0.022639 0.002783 0.000000 -0.000005 0.000000 0.000000 0.000000 -0.000000 -0.000001 0.000000 -0.000000 -10.566976 0.053360 -0.555302 2.069924 0.000000 -0.000002 -1.189385 -0.000351 0.007296 0.771352 -0.023828 0.002871 0.000000 -0.000005 0.000000 0.000000 -0.000000 0.000000 -0.279982 -0.977857 1.494337 7.268628 -1.542670 2.652537 14.074373 -1.141338 2.083137 0.674543 -0.000003 0.000002 0.000003 0.000000 0.000000 -0.000003 0.000008 0.000010 3.099097 4.081539 -16.760420 3.099248 4.081519 -16.760367 0.000003 0.000002 0.000001 2.812163 -3.074945 14.436592 2.715152 -3.044855 14.458144 0.000001 0.000003 0.000002 -0.000005 -0.000003 -0.000013 0.000002 0.000007 -0.000002 -1.884572 -0.056334 0.059190 0.446503 0.125566 -0.012837 -0.226946 -0.121945 -0.068643 0.276546 0.052536 0.021315 0.000000 -0.000000 0.000000 0.000000 0.000000 0.000000 -1.884570 0.056334 -0.059195 0.446506 -0.125566 0.012836 -0.226943 0.121948 0.068641 0.276540 -0.052549 -0.021316 -0.000000 -0.000000 -0.000000 -0.000000 -0.000000 -0.000000 0.000002 -0.000000 -0.000000 0.000000 -0.000000 -0.000000 -0.806605 -4.340026 1.274502 -0.809845 -4.366056 1.182095 -0.838471 -4.503626 0.418094 -0.860378 -4.520833 -0.138561 0.000000 0.000000 0.000001 -0.000001 -0.000000 -0.000000 -0.000001 0.000000 0.000000 
